<?xml version="1.0" encoding="UTF-8" standalone="no"?>
<!DOCTYPE svg PUBLIC "-//W3C//DTD SVG 1.1//EN" "http://www.w3.org/Graphics/SVG/1.1/DTD/svg11.dtd">
<!-- Created with Vectornator (http://vectornator.io/) -->
<svg height="100%" stroke-miterlimit="10" style="fill-rule:nonzero;clip-rule:evenodd;stroke-linecap:round;stroke-linejoin:round;" version="1.1" viewBox="0 0 1246.55 570.85" width="100%" xml:space="preserve" xmlns="http://www.w3.org/2000/svg" xmlns:vectornator="http://vectornator.io" xmlns:xlink="http://www.w3.org/1999/xlink">
<defs>
<clipPath id="TextBounds">
<rect height="182.416" width="791.877" x="454.674" y="194.217"/>
</clipPath>
</defs>
<clipPath id="ArtboardFrame">
<rect height="570.85" width="1246.55" x="0" y="0"/>
</clipPath>
<g clip-path="url(#ArtboardFrame)" id="Untitled" vectornator:layerName="Untitled">
<clipPath id="ClipPath">
<path d="M3.4639e-14-6.83897e-14L1920-6.83897e-14L1920 1080L3.4639e-14 1080L3.4639e-14-6.83897e-14Z"/>
</clipPath>
<g clip-path="url(#ClipPath)">
<g opacity="1">
<g opacity="1">
<g opacity="1">
<g opacity="1">
<path d="M10.53 18.6368L18.4375 248.513C18.4925 262.908 18.3722 267.254 18.4375 281.644L0.0156574 546.725C-0.548102 555.781 13.2777 564.162 18.308 565.231L42.9679 570.506C47.3221 571.434 63.1165 570.786 64.4904 563.284C103.56 349.481 120.528 190.747 73.6916 16.5685C72.1527 10.8301 68.0322 0.00068389 64.4904 0.00068389L19.6659 0.00068389C14.1211 0.00068389 9.8356 8.74123 10.53 18.6414" fill="#3593c9" fill-rule="nonzero" opacity="1" stroke="none"/>
<path d="M386.158 0.000430368L282.763 0.940028C265.874 1.8441 249.74 8.23222 236.81 19.1361C195.702 79.5649 165.812 138.44 134.314 201.475C117.521 235.051 117.521 285.415 134.314 335.789C160.762 415.139 187.88 482.021 235.052 554.067C250.917 570.921 268.633 570.85 285.416 570.85L386.158 570.85L302.209 335.789C285.416 285.415 285.416 251.84 302.209 201.475L386.158 0.000430368Z" fill="#2895a7" fill-rule="nonzero" opacity="1" stroke="none"/>
</g>
<g fill="#ffffff" opacity="1" stroke="none">
<path clip-path="url(#TextBounds)" d="M468.049 231.803L486.656 231.803C497.028 231.803 504.056 232.226 507.739 233.073C513.285 234.343 517.794 237.063 521.266 241.233C524.737 245.403 526.473 250.536 526.473 256.633C526.473 261.713 525.277 266.18 522.885 270.032C520.493 273.885 517.074 276.795 512.629 278.764C508.184 280.732 502.045 281.738 494.213 281.78L527.806 325.217L516.249 325.217L482.719 281.78L477.384 281.78L477.384 325.217L468.049 325.217L468.049 231.803ZM477.384 240.947L477.384 272.699L493.451 272.826C499.674 272.826 504.278 272.234 507.263 271.048C510.248 269.863 512.576 267.968 514.248 265.365C515.921 262.761 516.757 259.85 516.757 256.633C516.757 253.5 515.91 250.653 514.217 248.092C512.523 245.53 510.301 243.699 507.549 242.598C504.797 241.498 500.225 240.947 493.832 240.947L477.384 240.947Z"/>
<path clip-path="url(#TextBounds)" d="M603.186 302.292L610.679 306.229C608.224 311.056 605.387 314.95 602.169 317.914C598.952 320.878 595.332 323.132 591.31 324.677C587.288 326.222 582.737 326.995 577.657 326.995C566.396 326.995 557.59 323.301 551.239 315.914C544.889 308.526 541.714 300.175 541.714 290.861C541.714 282.098 544.402 274.287 549.779 267.428C556.595 258.707 565.718 254.347 577.149 254.347C588.918 254.347 598.317 258.813 605.345 267.746C610.34 274.054 612.88 281.928 612.965 291.369L550.858 291.369C551.028 299.413 553.589 306.007 558.542 311.151C563.496 316.295 569.613 318.867 576.895 318.867C580.409 318.867 583.827 318.253 587.151 317.025C590.474 315.797 593.3 314.167 595.629 312.135C597.957 310.103 600.476 306.822 603.186 302.292ZM603.186 283.685C602 278.944 600.275 275.155 598.01 272.318C595.745 269.482 592.75 267.196 589.024 265.46C585.299 263.724 581.383 262.856 577.276 262.856C570.502 262.856 564.681 265.036 559.812 269.397C556.256 272.572 553.568 277.335 551.747 283.685L603.186 283.685Z"/>
<path clip-path="url(#TextBounds)" d="M629.54 256.125L638.43 256.125L638.43 268.508C641.986 263.766 645.924 260.221 650.242 257.871C654.56 255.521 659.259 254.347 664.34 254.347C669.505 254.347 674.088 255.659 678.088 258.284C682.089 260.909 685.042 264.444 686.947 268.889C688.852 273.334 689.805 280.256 689.805 289.655L689.805 325.217L680.978 325.217L680.978 292.258C680.978 284.299 680.639 278.986 679.962 276.319C678.903 271.747 676.914 268.307 673.992 266C671.071 263.692 667.261 262.539 662.562 262.539C657.185 262.539 652.369 264.317 648.115 267.873C643.86 271.429 641.055 275.832 639.7 281.082C638.854 284.511 638.43 290.777 638.43 299.879L638.43 325.217L629.54 325.217L629.54 256.125Z"/>
<path clip-path="url(#TextBounds)" d="M716.603 230.469L725.557 230.469L725.557 256.125L739.655 256.125L739.655 263.745L725.557 263.745L725.557 325.217L716.603 325.217L716.603 263.745L704.474 263.745L704.474 256.125L716.603 256.125L716.603 230.469Z"/>
<path clip-path="url(#TextBounds)" d="M821.766 256.125L821.766 325.217L813.002 325.217L813.002 313.342C809.277 317.872 805.096 321.28 800.46 323.566C795.825 325.852 790.755 326.995 785.251 326.995C775.472 326.995 767.121 323.449 760.199 316.358C753.277 309.267 749.816 300.641 749.816 290.48C749.816 280.531 753.309 272.022 760.294 264.952C767.28 257.882 775.683 254.347 785.505 254.347C791.178 254.347 796.311 255.553 800.905 257.966C805.498 260.38 809.531 263.999 813.002 268.826L813.002 256.125L821.766 256.125ZM786.204 262.92C781.25 262.92 776.678 264.137 772.487 266.571C768.296 269.005 764.962 272.424 762.485 276.827C760.008 281.23 758.77 285.887 758.77 290.798C758.77 295.666 760.019 300.323 762.517 304.769C765.015 309.214 768.37 312.675 772.582 315.152C776.795 317.628 781.314 318.867 786.14 318.867C791.009 318.867 795.623 317.639 799.984 315.183C804.345 312.728 807.7 309.404 810.049 305.213C812.399 301.022 813.574 296.302 813.574 291.052C813.574 283.05 810.938 276.361 805.668 270.985C800.397 265.608 793.909 262.92 786.204 262.92Z"/>
<path clip-path="url(#TextBounds)" d="M840.436 229.453L849.327 229.453L849.327 325.217L840.436 325.217L840.436 229.453Z"/>
<path clip-path="url(#TextBounds)" d="M905.273 231.803L914.799 231.803L914.799 266.857L952.076 231.803L964.713 231.803L919.816 273.715L968.206 325.217L955.822 325.217L914.799 281.653L914.799 325.217L905.273 325.217L905.273 231.803Z"/>
<path clip-path="url(#TextBounds)" d="M983.764 227.675C985.796 227.675 987.532 228.395 988.971 229.834C990.411 231.274 991.131 233.009 991.131 235.041C991.131 237.031 990.411 238.746 988.971 240.185C987.532 241.625 985.796 242.344 983.764 242.344C981.774 242.344 980.06 241.625 978.62 240.185C977.181 238.746 976.461 237.031 976.461 235.041C976.461 233.009 977.181 231.274 978.62 229.834C980.06 228.395 981.774 227.675 983.764 227.675ZM979.319 256.125L988.273 256.125L988.273 325.217L979.319 325.217L979.319 256.125Z"/>
<path clip-path="url(#TextBounds)" d="M1014.44 230.469L1023.39 230.469L1023.39 256.125L1037.49 256.125L1037.49 263.745L1023.39 263.745L1023.39 325.217L1014.44 325.217L1014.44 263.745L1002.31 263.745L1002.31 256.125L1014.44 256.125L1014.44 230.469Z"/>
<path clip-path="url(#TextBounds)" d="M1108.93 302.292L1116.42 306.229C1113.97 311.056 1111.13 314.95 1107.91 317.914C1104.7 320.878 1101.08 323.132 1097.06 324.677C1093.03 326.222 1088.48 326.995 1083.4 326.995C1072.14 326.995 1063.33 323.301 1056.98 315.914C1050.63 308.526 1047.46 300.175 1047.46 290.861C1047.46 282.098 1050.15 274.287 1055.52 267.428C1062.34 258.707 1071.46 254.347 1082.89 254.347C1094.66 254.347 1104.06 258.813 1111.09 267.746C1116.09 274.054 1118.63 281.928 1118.71 291.369L1056.6 291.369C1056.77 299.413 1059.33 306.007 1064.29 311.151C1069.24 316.295 1075.36 318.867 1082.64 318.867C1086.15 318.867 1089.57 318.253 1092.9 317.025C1096.22 315.797 1099.04 314.167 1101.37 312.135C1103.7 310.103 1106.22 306.822 1108.93 302.292ZM1108.93 283.685C1107.74 278.944 1106.02 275.155 1103.75 272.318C1101.49 269.482 1098.49 267.196 1094.77 265.46C1091.04 263.724 1087.13 262.856 1083.02 262.856C1076.25 262.856 1070.43 265.036 1065.56 269.397C1062 272.572 1059.31 277.335 1057.49 283.685L1108.93 283.685Z"/>
<path clip-path="url(#TextBounds)" d="M1170.02 263.682L1164.31 269.588C1159.56 264.973 1154.93 262.666 1150.4 262.666C1147.52 262.666 1145.05 263.618 1143 265.523C1140.95 267.428 1139.92 269.651 1139.92 272.191C1139.92 274.435 1140.77 276.573 1142.46 278.605C1144.15 280.68 1147.71 283.114 1153.13 285.908C1159.73 289.337 1164.22 292.639 1166.59 295.815C1168.92 299.032 1170.08 302.652 1170.08 306.674C1170.08 312.347 1168.09 317.152 1164.12 321.089C1160.14 325.026 1155.16 326.995 1149.19 326.995C1145.21 326.995 1141.41 326.127 1137.79 324.391C1134.17 322.656 1131.18 320.264 1128.81 317.215L1134.4 310.865C1138.93 315.988 1143.73 318.549 1148.81 318.549C1152.37 318.549 1155.39 317.406 1157.89 315.12C1160.39 312.834 1161.64 310.145 1161.64 307.055C1161.64 304.515 1160.81 302.25 1159.16 300.26C1157.51 298.312 1153.79 295.857 1147.99 292.893C1141.76 289.676 1137.53 286.501 1135.28 283.368C1133.04 280.235 1131.92 276.658 1131.92 272.636C1131.92 267.386 1133.71 263.025 1137.28 259.554C1140.86 256.082 1145.38 254.347 1150.84 254.347C1157.19 254.347 1163.59 257.458 1170.02 263.682Z"/>
</g>
</g>
</g>
</g>
</g>
</g>
</svg>
