<svg xmlns="http://www.w3.org/2000/svg" width="2365" height="2365" viewBox="0 0 2365 2365">
  <g id="Grupo_4" data-name="Grupo 4" transform="translate(4257 -8887)">
    <g id="Elipse_1" data-name="Elipse 1" transform="translate(-4257 8887)" fill="#2895a7" stroke="#707070" stroke-width="1">
      <circle cx="1182.5" cy="1182.5" r="1182.5" stroke="none"/>
      <circle cx="1182.5" cy="1182.5" r="1182" fill="none"/>
    </g>
    <path id="bb6bb1fbda61c71d52d16b0b200361b8" d="M931,1331a157.992,157.992,0,0,0-12,15,76,76,0,0,0-9,18,64,64,0,0,0-6,18,136.014,136.014,0,0,0,0,20,84,84,0,0,0,8,38,90,90,0,0,0,54,54,94,94,0,0,0,76,0,90,90,0,0,0,54-54,100.913,100.913,0,0,0-165-109ZM1002,2C449.715,2,2,449.715,2,1002S449.715,2002,1002,2002s1000-447.715,1000-1000S1554.285,2,1002,2Zm0,1800c-441.828,0-800-358.172-800-800s358.172-800,800-800,800,358.172,800,800S1443.828,1802,1002,1802Zm0-1300A300,300,0,0,0,742,652,100,100,0,1,0,915,752a100.146,100.146,0,1,1,87,150,100,100,0,0,0-100,100v100a100,100,0,0,0,200,0v-18a300,300,0,0,0-100-582Z" transform="translate(-4076 9068)" fill="#fff"/>
  </g>
</svg>
