<svg xmlns="http://www.w3.org/2000/svg" width="46.395" height="50.009" viewBox="0 0 46.395 50.009">
  <g id="Grupo_11" data-name="Grupo 11" transform="translate(-247.638 -242)">
    <g id="Grupo_4" data-name="Grupo 4" transform="translate(-3.9 -4.204)">
      <rect id="Rectángulo_1" data-name="Rectángulo 1" width="44.93" height="44.344" rx="22.172" transform="translate(252.271 251.136)" fill="#f7f7f7"/>
      <path id="Trazado_22" data-name="Trazado 22" d="M68,50.5H28.93A2.93,2.93,0,0,0,26,53.43v7.716H70.93V53.43A2.93,2.93,0,0,0,68,50.5Z" transform="translate(226.271 200.636)" fill="#3593c9"/>
      <rect id="Rectángulo_2" data-name="Rectángulo 2" width="5.372" height="5.372" rx="2.686" transform="translate(256.666 266.178)" fill="#dedede"/>
      <rect id="Rectángulo_3" data-name="Rectángulo 3" width="5.372" height="5.372" rx="2.686" transform="translate(266.433 266.178)" fill="#dedede"/>
      <rect id="Rectángulo_4" data-name="Rectángulo 4" width="5.372" height="5.372" rx="2.686" transform="translate(276.201 266.178)" fill="#dedede"/>
      <rect id="Rectángulo_5" data-name="Rectángulo 5" width="5.372" height="5.372" rx="2.686" transform="translate(285.968 266.178)" fill="#dedede"/>
      <rect id="Rectángulo_6" data-name="Rectángulo 6" width="5.372" height="5.372" rx="2.686" transform="translate(256.666 275.946)" fill="#dedede"/>
      <rect id="Rectángulo_7" data-name="Rectángulo 7" width="5.372" height="5.372" rx="2.686" transform="translate(266.433 275.946)" fill="#dedede"/>
      <path id="Trazado_23" data-name="Trazado 23" d="M265.172,305.615a.732.732,0,0,1-.518-.214l-1.727-1.727a.733.733,0,0,1,1.036-1.036l1.121,1.118,3.292-4.566a.733.733,0,1,1,1.189.858l-3.8,5.264a.732.732,0,0,1-.536.3C265.211,305.615,265.191,305.615,265.172,305.615Z" transform="translate(12.679 -23.489)" fill="#63ea86"/>
      <rect id="Rectángulo_8" data-name="Rectángulo 8" width="5.372" height="5.372" rx="2.686" transform="translate(285.968 275.946)" fill="#dedede"/>
      <rect id="Rectángulo_9" data-name="Rectángulo 9" width="5.372" height="5.372" rx="2.686" transform="translate(256.666 285.713)" fill="#dedede"/>
      <rect id="Rectángulo_10" data-name="Rectángulo 10" width="5.372" height="5.372" rx="2.686" transform="translate(266.433 285.713)" fill="#dedede"/>
      <rect id="Rectángulo_11" data-name="Rectángulo 11" width="5.372" height="5.372" rx="2.686" transform="translate(276.201 285.713)" fill="#dedede"/>
      <rect id="Rectángulo_12" data-name="Rectángulo 12" width="5.372" height="5.372" rx="2.686" transform="translate(285.968 285.713)" fill="#dedede"/>
      <path id="Trazado_24" data-name="Trazado 24" d="M399.16,426.142V420.59a2.93,2.93,0,0,1,2.93-2.93h5.552Z" transform="translate(-110.441 -130.661)" fill="#cecece"/>
      <path id="Trazado_25" data-name="Trazado 25" d="M89.955,54.5a2.491,2.491,0,0,0,2.487-2.491V50.5H87.46v1.514A2.491,2.491,0,0,0,89.955,54.5Z" transform="translate(170.814 200.636)" fill="#3593c9"/>
      <rect id="Rectángulo_13" data-name="Rectángulo 13" width="4.981" height="8.205" rx="2.491" transform="translate(256.809 246.936)" fill="#eee"/>
      <path id="Trazado_26" data-name="Trazado 26" d="M406.027,54.5a2.491,2.491,0,0,0,2.495-2.491V50.5H403.54v1.514A2.491,2.491,0,0,0,406.027,54.5Z" transform="translate(-114.393 200.636)" fill="#3593c9"/>
      <rect id="Rectángulo_14" data-name="Rectángulo 14" width="4.981" height="8.205" rx="2.491" transform="translate(287.682 246.936)" fill="#eee"/>
      <path id="Trazado_27" data-name="Trazado 27" d="M407.233,7.5a2.485,2.485,0,0,0-.733.109,2.494,2.494,0,0,1,1.758,2.381v3.223A2.494,2.494,0,0,1,406.5,15.6a2.493,2.493,0,0,0,3.227-2.381V9.991A2.491,2.491,0,0,0,407.233,7.5Z" transform="translate(-117.064 239.436)" fill="#cecece"/>
      <path id="Trazado_28" data-name="Trazado 28" d="M247.991,54.5a2.491,2.491,0,0,0,2.491-2.491V50.5H245.5v1.514A2.491,2.491,0,0,0,247.991,54.5Z" transform="translate(28.21 200.636)" fill="#3593c9"/>
      <rect id="Rectángulo_15" data-name="Rectángulo 15" width="4.981" height="8.205" rx="2.491" transform="translate(272.245 246.936)" fill="#eee"/>
      <path id="Trazado_29" data-name="Trazado 29" d="M106.665,7.5a2.485,2.485,0,0,0-.733.109,2.494,2.494,0,0,1,1.758,2.381v3.223a2.494,2.494,0,0,1-1.758,2.381,2.493,2.493,0,0,0,3.223-2.381V9.991A2.491,2.491,0,0,0,106.665,7.5Zm-15.433,0a2.485,2.485,0,0,0-.733.109,2.494,2.494,0,0,1,1.758,2.381v3.223A2.494,2.494,0,0,1,90.5,15.6a2.489,2.489,0,0,0,3.219-2.381V9.991A2.491,2.491,0,0,0,91.233,7.5Z" transform="translate(168.071 239.436)" fill="#cecece"/>
      <path id="Trazado_30" data-name="Trazado 30" d="M24.6,35.847h3.419a1.711,1.711,0,0,0,1.709-1.709V30.719a1.711,1.711,0,0,0-1.709-1.709H24.6A1.711,1.711,0,0,0,22.9,30.719v3.419A1.711,1.711,0,0,0,24.6,35.847Zm-.244-5.128a.244.244,0,0,1,.244-.244h3.419a.244.244,0,0,1,.244.244v3.419a.244.244,0,0,1-.244.244H24.6a.244.244,0,0,1-.244-.244Zm29.547-4.64h3.419a1.711,1.711,0,0,0,1.709-1.709V20.951a1.711,1.711,0,0,0-1.709-1.709H53.907A1.711,1.711,0,0,0,52.2,20.951V24.37A1.711,1.711,0,0,0,53.907,26.079Zm-.244-5.128a.244.244,0,0,1,.244-.244h3.419a.244.244,0,0,1,.244.244V24.37a.244.244,0,0,1-.244.244H53.907a.244.244,0,0,1-.244-.244ZM24.6,45.614h3.419A1.711,1.711,0,0,0,29.733,43.9V40.486a1.711,1.711,0,0,0-1.709-1.709H24.6A1.711,1.711,0,0,0,22.9,40.486V43.9A1.711,1.711,0,0,0,24.6,45.614Zm-.244-5.128a.244.244,0,0,1,.244-.244h3.419a.244.244,0,0,1,.244.244V43.9a.244.244,0,0,1-.244.244H24.6a.244.244,0,0,1-.244-.244ZM61.233,4.2h-.879V3.223a3.223,3.223,0,1,0-6.447,0V4.2H44.921V3.223a3.223,3.223,0,0,0-6.447,0V4.2H29.488V3.223a3.223,3.223,0,0,0-6.447,0V4.2h-.879A3.667,3.667,0,0,0,18.5,7.863V46.347a3.667,3.667,0,0,0,3.663,3.663h39.07A3.667,3.667,0,0,0,64.9,46.347V7.863A3.667,3.667,0,0,0,61.233,4.2Zm-5.86-.977a1.758,1.758,0,1,1,3.516,0V6.447a1.758,1.758,0,1,1-3.516,0Zm-15.433,0a1.758,1.758,0,0,1,3.516,0V6.447a1.758,1.758,0,0,1-3.516,0Zm-15.433,0a1.758,1.758,0,1,1,3.516,0V6.447a1.758,1.758,0,1,1-3.516,0Zm30.445,40.5v.424H53.907a.244.244,0,0,1-.244-.244V40.486a.244.244,0,0,1,.244-.244h3.419a.239.239,0,0,1,.1.02,3.668,3.668,0,0,0-2.475,3.464Zm1.465,0a2.2,2.2,0,0,1,2.2-2.2H62.4l-5.981,5.981Zm7.013,2.622a2.2,2.2,0,0,1-2.2,2.2H57.45l5.981-5.981Zm0-6.284H58.979a1.711,1.711,0,0,0-1.654-1.285H53.907A1.711,1.711,0,0,0,52.2,40.486V43.9a1.711,1.711,0,0,0,1.709,1.709h1.041v2.93H22.163a2.2,2.2,0,0,1-2.2-2.2V16.312H63.43Zm0-25.216H19.965V7.863a2.2,2.2,0,0,1,2.2-2.2h.879v.781a3.223,3.223,0,0,0,6.447,0V5.665h8.986v.781a3.223,3.223,0,1,0,6.447,0V5.665h8.986v.781a3.223,3.223,0,1,0,6.447,0V5.665h.879a2.2,2.2,0,0,1,2.2,2.2ZM47.558,38.777H44.14a1.711,1.711,0,0,0-1.709,1.709V43.9a1.711,1.711,0,0,0,1.709,1.709h3.419A1.711,1.711,0,0,0,49.267,43.9V40.486a1.711,1.711,0,0,0-1.709-1.709ZM47.8,43.9a.244.244,0,0,1-.244.244H44.14A.244.244,0,0,1,43.9,43.9V40.486a.244.244,0,0,1,.244-.244h3.419a.244.244,0,0,1,.244.244Zm-13.43,1.709h3.419A1.711,1.711,0,0,0,39.5,43.9V40.486a1.711,1.711,0,0,0-1.709-1.709H34.372a1.711,1.711,0,0,0-1.709,1.709V43.9A1.711,1.711,0,0,0,34.372,45.614Zm-.244-5.128a.244.244,0,0,1,.244-.244h3.419a.244.244,0,0,1,.244.244V43.9a.244.244,0,0,1-.244.244H34.372a.244.244,0,0,1-.244-.244Zm19.779-4.64h3.419a1.711,1.711,0,0,0,1.709-1.709V30.719a1.711,1.711,0,0,0-1.709-1.709H53.907A1.711,1.711,0,0,0,52.2,30.719v3.419A1.711,1.711,0,0,0,53.907,35.847Zm-.244-5.128a.244.244,0,0,1,.244-.244h3.419a.244.244,0,0,1,.244.244v3.419a.244.244,0,0,1-.244.244H53.907a.244.244,0,0,1-.244-.244Zm-19.291-4.64h3.419A1.711,1.711,0,0,0,39.5,24.37V20.951a1.711,1.711,0,0,0-1.709-1.709H34.372a1.711,1.711,0,0,0-1.709,1.709V24.37A1.711,1.711,0,0,0,34.372,26.079Zm-.244-5.128a.244.244,0,0,1,.244-.244h3.419a.244.244,0,0,1,.244.244V24.37a.244.244,0,0,1-.244.244H34.372a.244.244,0,0,1-.244-.244ZM44.295,35.709a.732.732,0,0,0,.518.214h.059a.733.733,0,0,0,.536-.3l3.8-5.264a.733.733,0,1,0-1.189-.86l-3.292,4.566L43.6,32.946a.733.733,0,1,0-1.036,1.036ZM24.6,26.079h3.419a1.711,1.711,0,0,0,1.709-1.709V20.951a1.711,1.711,0,0,0-1.709-1.709H24.6A1.711,1.711,0,0,0,22.9,20.951V24.37A1.711,1.711,0,0,0,24.6,26.079Zm-.244-5.128a.244.244,0,0,1,.244-.244h3.419a.244.244,0,0,1,.244.244V24.37a.244.244,0,0,1-.244.244H24.6a.244.244,0,0,1-.244-.244ZM44.14,26.079h3.419a1.711,1.711,0,0,0,1.709-1.709V20.951a1.711,1.711,0,0,0-1.709-1.709H44.14a1.711,1.711,0,0,0-1.709,1.709V24.37A1.711,1.711,0,0,0,44.14,26.079ZM43.9,20.951a.244.244,0,0,1,.244-.244h3.419a.244.244,0,0,1,.244.244V24.37a.244.244,0,0,1-.244.244H44.14a.244.244,0,0,1-.244-.244Zm-9.523,14.9h3.419A1.711,1.711,0,0,0,39.5,34.137V30.719a1.711,1.711,0,0,0-1.709-1.709H34.372a1.711,1.711,0,0,0-1.709,1.709v3.419A1.711,1.711,0,0,0,34.372,35.847Zm-.244-5.128a.244.244,0,0,1,.244-.244h3.419a.244.244,0,0,1,.244.244v3.419a.244.244,0,0,1-.244.244H34.372a.244.244,0,0,1-.244-.244Z" transform="translate(233.038 246.204)" fill="#272a33"/>
    </g>
  </g>
</svg>
