<svg xmlns="http://www.w3.org/2000/svg" width="49.998" height="50" viewBox="0 0 49.998 50">
  <g id="Grupo_6" data-name="Grupo 6" transform="translate(-772 -242)">
    <g id="Grupo_5" data-name="Grupo 5">
      <path id="Trazado_82" data-name="Trazado 82" d="M3.5,0A3.279,3.279,0,0,1,7,3,3.279,3.279,0,0,1,3.5,6,3.279,3.279,0,0,1,0,3,3.279,3.279,0,0,1,3.5,0Z" transform="translate(809 285)" fill="none"/>
      <path id="Trazado_81" data-name="Trazado 81" d="M3,0A3,3,0,1,1,0,3,3,3,0,0,1,3,0Z" transform="translate(790 285)" fill="none"/>
      <path id="Trazado_52" data-name="Trazado 52" d="M44.035,8.953l-2.3,8.141-.281,1a6.356,6.356,0,0,1-5.484,4.562L13.848,25.047a4.111,4.111,0,0,0-2.812,1.516L7.629,5h33.3a3.153,3.153,0,0,1,3.109,3.953Z" transform="translate(776.291 244.812)" fill="#718db7"/>
      <path id="Trazado_53" data-name="Trazado 53" d="M41.738,17.094l-.281,1a6.356,6.356,0,0,1-5.484,4.562L13.848,25.047a4.111,4.111,0,0,0-2.812,1.516L7.629,5H18.582V7.719a9.375,9.375,0,0,0,9.375,9.375Z" transform="translate(776.291 244.813)" fill="none"/>
      <g id="Layer_1" data-name="Layer 1" transform="translate(772 242)">
        <path id="Trazado_54" data-name="Trazado 54" d="M0,1.563A1.562,1.562,0,0,0,1.562,3.125h6.7A1.563,1.563,0,0,1,9.811,4.444l3.878,24.568a5.477,5.477,0,0,0,.12,5.958,5.75,5.75,0,0,0,4.8,2.53H45.312a1.562,1.562,0,0,0,0-3.125H18.6a2.594,2.594,0,0,1-2.2-1.15,2.5,2.5,0,0,1,1.906-3.814l22.116-2.38a7.9,7.9,0,0,0,6.833-5.7l2.566-9.145a4.584,4.584,0,0,0-.781-4.041,4.766,4.766,0,0,0-3.827-1.9H18.877a1.562,1.562,0,1,0,0,3.125H45.219a1.672,1.672,0,0,1,1.345.653,1.478,1.478,0,0,1,.255,1.309l-2.567,9.147a4.791,4.791,0,0,1-4.159,3.437L17.977,26.308a5.85,5.85,0,0,0-1.5.366L12.9,3.961A4.667,4.667,0,0,0,8.267,0h-6.7A1.562,1.562,0,0,0,0,1.563Zm45.312,43.75A4.687,4.687,0,1,0,40.625,50,4.687,4.687,0,0,0,45.312,45.312Zm-4.687,1.563a1.562,1.562,0,1,1,1.562-1.562A1.562,1.562,0,0,1,40.625,46.875ZM25,45.312A4.687,4.687,0,1,0,20.312,50,4.687,4.687,0,0,0,25,45.312Zm-6.25,0a1.562,1.562,0,1,1,1.562,1.563A1.562,1.562,0,0,1,18.75,45.312Z" transform="translate(0 0)"/>
        <path id="Trazado_55" data-name="Trazado 55" d="M20.687,8a1.562,1.562,0,0,0-1.562,1.562v1.562H17.563a1.562,1.562,0,1,0,0,3.125h1.562v1.562a1.562,1.562,0,1,0,3.125,0V14.25h1.562a1.562,1.562,0,1,0,0-3.125H22.25V9.562A1.563,1.563,0,0,0,20.687,8Z" transform="translate(9 4.5)"/>
      </g>
    </g>
  </g>
</svg>
