<svg xmlns="http://www.w3.org/2000/svg" width="63.337" height="50.009" viewBox="0 0 63.337 50.009">
  <g id="Grupo_10" data-name="Grupo 10" transform="translate(-426 -242)">
    <g id="Grupo_3" data-name="Grupo 3">
      <g id="_9bbe57a017ee0f014369edab8037755e" data-name="9bbe57a017ee0f014369edab8037755e" transform="translate(426 242)">
        <path id="Trazado_70" data-name="Trazado 70" d="M62.8,33.169a9.393,9.393,0,0,1-9.391,9.391H11.391a9.391,9.391,0,0,1,0-18.782,8.874,8.874,0,0,1,1.5.126,9.386,9.386,0,0,1,13.3-6.917A13.8,13.8,0,0,1,52.9,23.806a3.2,3.2,0,0,1,.517-.028A9.393,9.393,0,0,1,62.8,33.169Z" transform="translate(-0.733 -5.994)" fill="none"/>
        <path id="Trazado_71" data-name="Trazado 71" d="M62.641,29.527a9.391,9.391,0,0,1-9.387,9.387H11.224a9.406,9.406,0,0,1-8.614-5.637,9.5,9.5,0,0,0,3.75.773H48.378A9.4,9.4,0,0,0,57,20.913,9.406,9.406,0,0,1,62.641,29.527Z" transform="translate(-0.57 -2.352)" opacity="0.07"/>
        <g id="Grupo_2" data-name="Grupo 2" transform="translate(0 0)">
          <path id="Trazado_72" data-name="Trazado 72" d="M42.392,38.808H39.839a.975.975,0,0,1-.972-.972V23.216a1.9,1.9,0,0,0-1.89-1.89H30.025a1.88,1.88,0,0,0-1.88,1.88v15.6H24.621a.965.965,0,0,0-.726,1.6l8.875,10.242a1,1,0,0,0,.737.342.958.958,0,0,0,.726-.342L43.118,40.41A.967.967,0,0,0,42.392,38.808Z" transform="translate(5.042 -2.242)" fill="#5091c4"/>
          <path id="Trazado_73" data-name="Trazado 73" d="M40.317,38.808H37.764a.975.975,0,0,1-.972-.972V23.216a1.9,1.9,0,0,0-1.89-1.89H32.35a.919.919,0,0,0-.919.919V50.994a.958.958,0,0,0,.726-.342L41.043,40.41A.967.967,0,0,0,40.317,38.808Z" transform="translate(7.117 -2.242)" fill="#5091c4" opacity="0.05"/>
          <path id="Trazado_74" data-name="Trazado 74" d="M54.632,22.82A15.067,15.067,0,0,0,25.71,15.583,10.645,10.645,0,0,0,12.163,22.79c-.168-.008-.336-.012-.506-.012a10.658,10.658,0,0,0,0,21.315h16.8a2.223,2.223,0,0,0,.527,1.163L37.859,55.5a2.234,2.234,0,0,0,3.377,0c9.1-10.694,9.246-10.232,9.4-11.4h3.039a10.658,10.658,0,0,0,.953-21.273ZM39.547,53.579l-8.221-9.485h2.855a1.266,1.266,0,0,0,1.267-1.267V27.235a.62.62,0,0,1,.62-.619h6.96a.62.62,0,0,1,.62.619V41.859a2.236,2.236,0,0,0,2.234,2.234h1.888ZM53.679,41.56h-7.5V27.235a3.156,3.156,0,0,0-3.153-3.153h-6.96a3.156,3.156,0,0,0-3.153,3.153V41.56H11.657a8.124,8.124,0,0,1,0-16.249,7.61,7.61,0,0,1,1.28.108,1.252,1.252,0,0,0,.95-.216,1.269,1.269,0,0,0,.516-.827,8.1,8.1,0,0,1,11.5-5.984,1.267,1.267,0,0,0,1.766-.766,12.531,12.531,0,0,1,24.252,6.2,1.268,1.268,0,0,0,1.455,1.5,1.922,1.922,0,0,1,.3-.011,8.124,8.124,0,0,1,0,16.249Z" transform="translate(-1 -6.26)"/>
        </g>
      </g>
    </g>
  </g>
</svg>
