<svg xmlns="http://www.w3.org/2000/svg" width="64.419" height="50" viewBox="0 0 64.419 50">
  <g id="Grupo_12" data-name="Grupo 12" transform="translate(-901 -242)">
    <path id="Trazado_38" data-name="Trazado 38" d="M448.273,245.145H444.5a3.774,3.774,0,0,1,3.775,3.775v18.11A3.774,3.774,0,0,1,444.5,270.8h3.775a3.774,3.774,0,0,0,3.775-3.775V248.92a3.774,3.774,0,0,0-3.775-3.775Z" transform="translate(512.428 20.253)" fill="#608fbf"/>
    <path id="Trazado_39" data-name="Trazado 39" d="M460.95,271.578h-1.887a.5.5,0,0,1,.5.5v2.469a.5.5,0,0,1-.5.5h1.887a.5.5,0,0,0,.5-.5v-2.469A.5.5,0,0,0,460.95,271.578Z" transform="translate(499.696 -2.854)" fill="#eee"/>
    <g id="Grupo_1" data-name="Grupo 1" transform="translate(901 242)">
      <path id="Trazado_36" data-name="Trazado 36" d="M68.6,105.215a2.1,2.1,0,0,1-1.809,2.072,1.978,1.978,0,0,1-.288.02,2.1,2.1,0,0,1-2.081-1.841l-.05-.409-.711-5.77-1.129-.736-2.09-1.364-.81-.528a1.823,1.823,0,0,0-1.424-.248l-.031-.011-.015.021a1.836,1.836,0,0,0-1.348,1.491c-.005.028-.009.057-.011.084a1.776,1.776,0,0,0-.011.2q0,.057,0,.113l.02.181-.744.818-16.592-1,2.748-12.123q.4.036.819.063.538.034,1.051.049l.3-.02,1.714-.117,14.738-1a2.485,2.485,0,0,1,2.112,1.363l3.451,6.826s0,.009.006.013l.435.82a8.234,8.234,0,0,1,.912,2.988l.823,7.822C68.6,105.067,68.6,105.141,68.6,105.215Z" transform="translate(-34.512 -81.891)" fill="#ffcd85"/>
      <path id="Trazado_37" data-name="Trazado 37" d="M61.127,86.3l.3-.02.481-.033q-.388-.025-.763-.059l-.025.112Zm26.379,18.7-.823-7.822a8.234,8.234,0,0,0-.912-2.988l-.435-.82s0-.009-.006-.013l-3.451-6.826a2.485,2.485,0,0,0-2.112-1.363l-1.328.09a2.481,2.481,0,0,1,1.553,1.273l3.451,6.826s0,.009.006.013l.435.82a8.234,8.234,0,0,1,.912,2.988l.823,7.822c.008.075.011.15.011.224a2.1,2.1,0,0,1-1.155,1.867,2.089,2.089,0,0,0,.945.225,1.979,1.979,0,0,0,.288-.02,2.1,2.1,0,0,0,1.809-2.072A2.242,2.242,0,0,0,87.506,104.991ZM75.237,96.412l-.031-.011-.015.021a1.836,1.836,0,0,0-1.348,1.491c-.005.028-.009.057-.011.084a1.776,1.776,0,0,0-.011.2q0,.057,0,.113l.02.181-.645.71,1.789.108.744-.818-.02-.181q0-.057,0-.113a1.776,1.776,0,0,1,.011-.2c0-.028.006-.057.011-.085a1.834,1.834,0,0,1,.869-1.289A1.822,1.822,0,0,0,75.237,96.412Z" transform="translate(-53.429 -81.891)" fill="#ffc570"/>
      <rect id="Rectángulo_19" data-name="Rectángulo 19" width="39.182" height="25.659" rx="12.83" transform="translate(24.293 23.398)" fill="#5091c4"/>
      <rect id="Rectángulo_20" data-name="Rectángulo 20" width="8.567" height="3.476" rx="1.738" transform="translate(51.582 26.723)" fill="#fff"/>
      <rect id="Rectángulo_21" data-name="Rectángulo 21" width="7.603" height="5.539" rx="2.77" transform="translate(27.619 26.723)" fill="#ffe966"/>
      <path id="Trazado_40" data-name="Trazado 40" d="M262.833,271.578h-1.887a.5.5,0,0,1,.5.5v4.533a.5.5,0,0,1-.5.5h1.887a.5.5,0,0,0,.5-.5v-4.533A.5.5,0,0,0,262.833,271.578Z" transform="translate(-228.114 -244.855)" fill="#ffe236"/>
      <ellipse id="Elipse_3" data-name="Elipse 3" cx="2.202" cy="2.202" rx="2.202" ry="2.202" transform="translate(50.084 40.879)" fill="#ffe966"/>
      <ellipse id="Elipse_4" data-name="Elipse 4" cx="2.202" cy="2.202" rx="2.202" ry="2.202" transform="translate(53.858 40.879)" fill="#ffc166"/>
      <path id="Trazado_41" data-name="Trazado 41" d="M440.1,384.085a2.192,2.192,0,0,0-.786.147,2.2,2.2,0,0,1,0,4.109,2.2,2.2,0,1,0,.786-4.256Z" transform="translate(-384.039 -343.206)" fill="#ffb74e"/>
      <path id="Trazado_42" data-name="Trazado 42" d="M103.155,217.268l-3.814.969a1.565,1.565,0,0,0-1.174,1.65l0,.028a1.565,1.565,0,0,0,1.614,1.431l10.093-.353Z" transform="translate(-85.81 -197.378)" fill="#ffc570"/>
      <path id="Trazado_43" data-name="Trazado 43" d="M134.517,233.6l-3.9,2.643a1.7,1.7,0,0,0,1.5,3.013l9.041-3.094-2.493-1.429A14.364,14.364,0,0,0,134.517,233.6Z" transform="translate(-113.528 -211.651)" fill="#ffc570"/>
      <path id="Trazado_44" data-name="Trazado 44" d="M62.532,182.124l-2.09-1.364,2.092,1.364Zm4.391,10.063a2.163,2.163,0,0,1-3.182,1.415l-1.609-.916-.053-.03L59.177,191l-.02-.011-.453-.257-2.747-1.564-1.661-.946-1.443-.822-3.87-1.32-6.08-2.072a5,5,0,0,1-1.237-.622l-2.187-1.511,17.185.182.15,0a1.82,1.82,0,0,0,.677,1.15l6.88,5.416.292.23,1.483,1.168a2.146,2.146,0,0,1,.644.832,2.175,2.175,0,0,1,.132,1.327Z" transform="translate(-34.512 -165.463)" fill="#ffcd85"/>
      <path id="Trazado_45" data-name="Trazado 45" d="M0,64.749l7.075,1.779a1.132,1.132,0,0,1,.854,1.355L4.875,81.356a1.132,1.132,0,0,1-1.355.854L0,81.639" transform="translate(0 -64.048)" fill="#5091c4"/>
      <path id="Trazado_46" data-name="Trazado 46" d="M37.184,96.42h3.828a.944.944,0,1,0,0-1.887H37.184a.944.944,0,0,0,0,1.887Zm-9.567,0h3.829a.944.944,0,0,0,0-1.887H27.617a.944.944,0,0,0,0,1.887ZM59.7,81.633H34.955l-.766-7.274a9.118,9.118,0,0,0-1.017-3.332l-.424-.8-3.459-6.841a3.432,3.432,0,0,0-2.914-1.881.932.932,0,0,0-.1,0l-1.852.126-12.886.873-1.966.134q-.336-.011-.672-.029a2.08,2.08,0,0,0-1.6-1.869L1.171,59.208a.944.944,0,1,0-.459,1.831l6.132,1.536.021,0a.189.189,0,0,1,.142.226L3.953,76.278a.189.189,0,0,1-.226.142L1.15,75.837a.944.944,0,1,0-.417,1.841l2.577.584a2.074,2.074,0,0,0,2.3-1.072l1,.694a5.937,5.937,0,0,0,1.468.738l3.9,1.33a2.5,2.5,0,0,0-.572,1.8c0,.027,0,.052.006.072a2.505,2.505,0,0,0,2.495,2.273l.089,0,1.653-.058a2.64,2.64,0,0,0,3.236,3.64l4.455-1.525v18.313a4.723,4.723,0,0,0,4.718,4.718H59.7a4.723,4.723,0,0,0,4.718-4.718V86.351A4.723,4.723,0,0,0,59.7,81.633ZM13.937,82.2a.62.62,0,0,1-.64-.567l0-.02v-.009a.619.619,0,0,1,.465-.655l.669-.17,3.521,1.2L18,82.01l-.082.056Zm4.341,3.683a.745.745,0,0,1-.244.04.755.755,0,0,1-.422-1.38l2.212-1.5,2.531,1.441Zm.527-5.588a.937.937,0,0,0-.162-.073l-3.85-1.313-.015-.005L8.691,76.833a4.048,4.048,0,0,1-1-.5L6.122,75.246l2.44-10.765c.336.02.67.036.993.046a.846.846,0,0,0,.088,0l2.016-.137,12.886-.873,1.794-.122a1.543,1.543,0,0,1,1.265.843l1.05,2.077a.938.938,0,0,0,.109.428l2.307,4.35.013.024,0,.008.417.787a7.238,7.238,0,0,1,.807,2.645l.745,7.077H30.72l-.637-5.172a.944.944,0,0,0-.421-.675l-1.107-.723-.019-.014-2.9-1.893a2.781,2.781,0,0,0-4.264,1.888c-.008.047-.015.1-.019.144a2.719,2.719,0,0,0-.016.3,2.757,2.757,0,0,0,1.061,2.186L29.548,83.3l0,0,1.5,1.179a1.2,1.2,0,0,1,.364.469,1.232,1.232,0,0,1,.075.746,1.217,1.217,0,0,1-1.192.957,1.2,1.2,0,0,1-.6-.16Zm13.869,7.139a3.121,3.121,0,0,0,.391-.592h1.212V90.5H28.561V88.025l.2.113A3.107,3.107,0,0,0,32.674,87.439ZM28.64,80.187l-5.082-4a.883.883,0,0,1-.339-.7.83.83,0,0,1,.005-.094l0-.022,0-.023a.874.874,0,0,1,.1-.3.894.894,0,0,1,1.268-.312l.807.526,0,0,2.851,1.86Zm33.889,24.274a2.834,2.834,0,0,1-2.831,2.831H28.065a2.834,2.834,0,0,1-2.831-2.831V86.131l1.439.82v3.987a1.449,1.449,0,0,0,1.447,1.447h6.6a1.449,1.449,0,0,0,1.447-1.447V86.406a1.449,1.449,0,0,0-1.447-1.447H33.361a3.041,3.041,0,0,0-.627-1.439H59.7a2.834,2.834,0,0,1,2.831,2.831Zm-6.472-5.347a3.129,3.129,0,0,0-1.887.631,3.145,3.145,0,1,0,0,5.029,3.145,3.145,0,1,0,1.887-5.66ZM53.07,103.24a1.258,1.258,0,1,1,0-1.961,3.134,3.134,0,0,0,0,1.961Zm2.988.278a1.251,1.251,0,0,1-.786-.278,3.134,3.134,0,0,0,0-1.961,1.258,1.258,0,1,1,.786,2.239Zm-28.441-1.887h7.6a.944.944,0,1,0,0-1.887h-7.6a.944.944,0,0,0,0,1.887ZM59.644,84.959h-7.56a1.449,1.449,0,0,0-1.447,1.447v2.469a1.449,1.449,0,0,0,1.447,1.447h7.56a1.449,1.449,0,0,0,1.447-1.447V86.406A1.449,1.449,0,0,0,59.644,84.959Zm-.44,3.476H52.524V86.846H59.2Zm.944,6.1H56.318a.944.944,0,0,0,0,1.887h3.829a.944.944,0,1,0,0-1.887Zm-17.378,8.986H27.617a.944.944,0,0,0,0,1.887H42.769a.944.944,0,1,0,0-1.887Zm8.754-8.042a.944.944,0,0,0-.944-.944H46.751a.944.944,0,1,0,0,1.887H50.58a.944.944,0,0,0,.944-.944Z" transform="translate(0.002 -59.179)" fill="#272a33"/>
    </g>
  </g>
</svg>
