<?xml version="1.0" encoding="UTF-8" standalone="no"?>
<!DOCTYPE svg PUBLIC "-//W3C//DTD SVG 1.1//EN" "http://www.w3.org/Graphics/SVG/1.1/DTD/svg11.dtd">
<!-- Created with Vectornator (http://vectornator.io/) -->
<svg height="100%" stroke-miterlimit="10" style="fill-rule:nonzero;clip-rule:evenodd;stroke-linecap:round;stroke-linejoin:round;" version="1.1" viewBox="0 0 343.053 502.571" width="100%" xml:space="preserve" xmlns="http://www.w3.org/2000/svg" xmlns:vectornator="http://vectornator.io" xmlns:xlink="http://www.w3.org/1999/xlink">
<defs/>
<g id="Capa-1" vectornator:layerName="Capa 1">
<g opacity="1">
<path d="M12.2137 18.4555L19.1147 219.071C19.1627 231.634 19.0577 235.427 19.1147 247.985L3.03769 479.325C2.54569 487.228 14.6117 494.542 19.0017 495.475L40.5227 500.079C44.3227 500.889 58.1067 500.323 59.3057 493.777C93.4027 307.187 108.211 168.658 67.3357 16.6505C65.9927 11.6425 62.3967 2.19149 59.3057 2.19149L20.1867 2.19149C15.3477 2.19149 11.6077 9.81949 12.2137 18.4595" fill="#3593c9" fill-rule="nonzero" opacity="1" stroke="none"/>
<path d="M340.03 2.19127L249.796 3.01127C235.056 3.80027 220.976 9.37527 209.692 18.8913C173.816 71.6283 147.731 123.009 120.242 178.021C105.587 207.323 105.587 251.276 120.242 295.238C143.324 364.488 166.99 422.857 208.158 485.733C222.003 500.441 237.464 500.379 252.111 500.379L340.03 500.379L266.766 295.238C252.111 251.276 252.111 221.975 266.766 178.021L340.03 2.19127Z" fill="#2895a7" fill-rule="nonzero" opacity="1" stroke="none"/>
</g>
</g>
</svg>
