<?xml version="1.0" encoding="UTF-8" standalone="no"?>
<!DOCTYPE svg PUBLIC "-//W3C//DTD SVG 1.1//EN" "http://www.w3.org/Graphics/SVG/1.1/DTD/svg11.dtd">
<!-- Created with Vectornator (http://vectornator.io/) -->
<svg height="100%" stroke-miterlimit="10" style="fill-rule:nonzero;clip-rule:evenodd;stroke-linecap:round;stroke-linejoin:round;" version="1.1" viewBox="0 0 343.053 542.679" width="100%" xml:space="preserve" xmlns="http://www.w3.org/2000/svg" xmlns:vectornator="http://vectornator.io" xmlns:xlink="http://www.w3.org/1999/xlink">
<defs/>
<g id="Capa-1" vectornator:layerName="Capa 1">
<g opacity="1">
<path d="M52.5367 97.4402L57.691 247.279C57.7268 256.662 57.6484 259.495 57.691 268.875L45.6832 441.661C45.3157 447.564 54.3277 453.027 57.6066 453.724L73.6805 457.162C76.5187 457.767 86.8139 457.345 87.7094 452.455C113.176 313.092 124.236 209.626 93.707 96.0921C92.7039 92.3517 90.018 85.2928 87.7094 85.2928L58.4916 85.2928C54.8774 85.2928 52.084 90.9901 52.5367 97.4432" fill="#3593c9" fill-rule="nonzero" opacity="1" stroke="none"/>
<path d="M297.38 85.2926L229.985 85.905C218.976 86.4943 208.46 90.6583 200.032 97.7657C173.236 137.155 153.753 175.531 133.222 216.619C122.276 238.504 122.276 271.333 133.222 304.168C150.462 355.89 168.138 399.486 198.886 446.447C209.227 457.433 220.774 457.386 231.714 457.386L297.38 457.386L242.66 304.168C231.714 271.333 231.714 249.448 242.66 216.619L297.38 85.2926Z" fill="#2895a7" fill-rule="nonzero" opacity="1" stroke="none"/>
</g>
</g>
</svg>
