<svg xmlns="http://www.w3.org/2000/svg" width="2365" height="2365" viewBox="0 0 2365 2365">
  <g id="Grupo_5" data-name="Grupo 5" transform="translate(1202 -8014)">
    <g id="Elipse_2" data-name="Elipse 2" transform="translate(-1202 8014)" fill="#34b2ce" stroke="#707070" stroke-width="1">
      <circle cx="1182.5" cy="1182.5" r="1182.5" stroke="none"/>
      <circle cx="1182.5" cy="1182.5" r="1182" fill="none"/>
    </g>
    <path id="c09c3f3286fbd3ed384225de71334f47" d="M1002,702c-165.685,0-300,134.315-300,300s134.315,300,300,300,300-134.315,300-300S1167.685,702,1002,702Zm0,400a100,100,0,1,1,100-100A100,100,0,0,1,1002,1102Zm900-200H1795c-45.908-362.019-330.981-647.092-693-693V102a100,100,0,1,0-200,0V209C539.981,254.908,254.908,539.981,209,902H102a100,100,0,0,0,0,200H209c45.908,362.019,330.981,647.092,693,693v107a100,100,0,0,0,200,0V1795c362.019-45.908,647.091-330.981,693-693h107a100,100,0,0,0,0-200Zm-900,700c-331.371,0-600-268.629-600-600s268.629-600,600-600,600,268.629,600,600S1333.371,1602,1002,1602Z" transform="translate(-1021 8195)" fill="#fff"/>
  </g>
</svg>
