<svg xmlns="http://www.w3.org/2000/svg" width="50" height="50" viewBox="0 0 50 50">
  <g id="Grupo_8" data-name="Grupo 8" transform="translate(-667 -242)">
    <g id="Grupo_7" data-name="Grupo 7">
      <circle id="Elipse_5" data-name="Elipse 5" cx="4.5" cy="4.5" r="4.5" transform="translate(686 245)" fill="#d9e1df"/>
      <circle id="Elipse_6" data-name="Elipse 6" cx="5" cy="5" r="5" transform="translate(702 260)" fill="#dbd2bf"/>
      <circle id="Elipse_7" data-name="Elipse 7" cx="4.5" cy="4.5" r="4.5" transform="translate(670 265)" fill="#34b2ce"/>
      <path id="Trazado_47" data-name="Trazado 47" d="M27,52A25,25,0,1,1,52,27,25.073,25.073,0,0,1,27,52ZM27,3.667A23.333,23.333,0,1,0,50.333,27,23.4,23.4,0,0,0,27,3.667Z" transform="translate(665 240)" fill="#333"/>
      <path id="Trazado_48" data-name="Trazado 48" d="M37.667,28.667A5.833,5.833,0,1,1,43.5,22.833,5.8,5.8,0,0,1,37.667,28.667Zm0-10a4.167,4.167,0,1,0,4.167,4.167A4.126,4.126,0,0,0,37.667,18.667Zm8.333,20H29.333v-.833a8.333,8.333,0,1,1,16.667,0ZM31.083,37h13.25a6.725,6.725,0,0,0-6.583-5.833A6.809,6.809,0,0,0,31.083,37Zm-11.75-8.333a5.833,5.833,0,1,1,5.833-5.833A5.8,5.8,0,0,1,19.333,28.667Zm0-10A4.167,4.167,0,1,0,23.5,22.833,4.126,4.126,0,0,0,19.333,18.667Zm8.333,20H11v-.833a8.333,8.333,0,0,1,16.667,0ZM12.75,37H26a6.725,6.725,0,0,0-6.583-5.833A6.809,6.809,0,0,0,12.75,37Z" transform="translate(663.5 237.5)" fill="#333"/>
      <circle id="Elipse_8" data-name="Elipse 8" cx="6" cy="6" r="6" transform="translate(686 256)" fill="#6a8ebb"/>
      <path id="Trazado_49" data-name="Trazado 49" d="M30.667,31.333a6.667,6.667,0,1,1,6.667-6.667A6.686,6.686,0,0,1,30.667,31.333Zm0-11.667a5,5,0,1,0,5,5A5.015,5.015,0,0,0,30.667,19.667Z" transform="translate(661.333 237.333)" fill="#333"/>
      <path id="Trazado_50" data-name="Trazado 50" d="M30.167,36A9.14,9.14,0,0,0,21,45.167H39.333A9.14,9.14,0,0,0,30.167,36Z" transform="translate(661.833 234.333)" fill="#608fbf"/>
      <path id="Trazado_51" data-name="Trazado 51" d="M40,45.833H20V45a10,10,0,0,1,20,0ZM21.667,44.167H38.333a8.38,8.38,0,0,0-16.667,0Z" transform="translate(662 234.5)" fill="#333"/>
    </g>
  </g>
</svg>
